HIERARCHY
ROOT hips
{
  OFFSET 0 10.680822821525009 1.3929502295107734
  CHANNELS 6 Xposition Yposition Zposition Yrotation Xrotation Zrotation
  JOINT spine
  {
    OFFSET -7.042017322922631e-31 0.6058489940359625 0
    CHANNELS 3 Yrotation Xrotation Zrotation
    JOINT chest
    {
      OFFSET 0 1.2699794144455032 0
      CHANNELS 3 Yrotation Xrotation Zrotation
      JOINT upperChest
      {
        OFFSET 0 1.217799211677689 0
        CHANNELS 3 Yrotation Xrotation Zrotation
        JOINT neck
        {
          OFFSET 0 1.5248826104153006 0
          CHANNELS 3 Yrotation Xrotation Zrotation
          JOINT head
          {
            OFFSET 0 0.8197772727844447 0
            CHANNELS 3 Yrotation Xrotation Zrotation
            JOINT leftEye
            {
              OFFSET 0.2793952361220866 0.6769952096623495 0.1830357412467788
              CHANNELS 3 Yrotation Xrotation Zrotation
              End Site
              {
                OFFSET 0.2793952361220866 0.6769952096623495 0.1830357412467788
              }
            }
            JOINT rightEye
            {
              OFFSET -0.27939522230689573 0.676995205357064 0.18303631459760622
              CHANNELS 3 Yrotation Xrotation Zrotation
              End Site
              {
                OFFSET -0.27939522230689573 0.676995205357064 0.18303631459760622
              }
            }
          }
        }
        JOINT leftShoulder
        {
          OFFSET 0.41486978509200423 1.1670505408695453 0
          CHANNELS 3 Yrotation Xrotation Zrotation
          JOINT leftUpperArm
          {
            OFFSET 0.9737926108153417 0 0
            CHANNELS 3 Yrotation Xrotation Zrotation
            JOINT leftLowerArm
            {
              OFFSET 2.5269332222665284 0 0
              CHANNELS 3 Yrotation Xrotation Zrotation
              JOINT leftHand
              {
                OFFSET 2.4263782738425914 0 0
                CHANNELS 3 Yrotation Xrotation Zrotation
                JOINT leftIndexProximal
                {
                  OFFSET 0.724320348022514 0.08170607082582437 0.20360061616140124
                  CHANNELS 3 Yrotation Xrotation Zrotation
                  JOINT leftIndexIntermediate
                  {
                    OFFSET 0.36548960630744587 -0.010566596513783999 -0.01414783573280308
                    CHANNELS 3 Yrotation Xrotation Zrotation
                    JOINT leftIndexDistal
                    {
                      OFFSET 0.22502819650693362 -0.007863819831430696 -0.007567681939621526
                      CHANNELS 3 Yrotation Xrotation Zrotation
                      End Site
                      {
                        OFFSET 0.22502819650693362 -0.007863819831430696 -0.007567681939621526
                      }
                    }
                  }
                }
                JOINT leftLittleProximal
                {
                  OFFSET 0.6720322998298205 0.08170601055037707 -0.3230036039466837
                  CHANNELS 3 Yrotation Xrotation Zrotation
                  JOINT leftLittleIntermediate
                  {
                    OFFSET 0.34583592281688713 5.476543019078406e-8 1.3869203337180114e-7
                    CHANNELS 3 Yrotation Xrotation Zrotation
                    JOINT leftLittleDistal
                    {
                      OFFSET 0.19925728062053938 0.003098047439490381 0.0038303983709246925
                      CHANNELS 3 Yrotation Xrotation Zrotation
                      End Site
                      {
                        OFFSET 0.19925728062053938 0.003098047439490381 0.0038303983709246925
                      }
                    }
                  }
                }
                JOINT leftMiddleProximal
                {
                  OFFSET 0.7300436596551069 0.0817073395107144 0.022661722987926763
                  CHANNELS 3 Yrotation Xrotation Zrotation
                  JOINT leftMiddleIntermediate
                  {
                    OFFSET 0.40758254347686607 -0.0000012383587111308714 2.408460318820138e-7
                    CHANNELS 3 Yrotation Xrotation Zrotation
                    JOINT leftMiddleDistal
                    {
                      OFFSET 0.2514490105498507 0.0000013869132886590307 9.738618134136345e-8
                      CHANNELS 3 Yrotation Xrotation Zrotation
                      End Site
                      {
                        OFFSET 0.2514490105498507 0.0000013869132886590307 9.738618134136345e-8
                      }
                    }
                  }
                }
                JOINT leftRingProximal
                {
                  OFFSET 0.7217261161191838 0.08170601902187746 -0.15043395722184966
                  CHANNELS 3 Yrotation Xrotation Zrotation
                  JOINT leftRingIntermediate
                  {
                    OFFSET 0.37808807487521556 0.0000013754022405443322 2.2046919317952884e-7
                    CHANNELS 3 Yrotation Xrotation Zrotation
                    JOINT leftRingDistal
                    {
                      OFFSET 0.21812105442344254 -0.002713483731960231 -0.004991354517454624
                      CHANNELS 3 Yrotation Xrotation Zrotation
                      End Site
                      {
                        OFFSET 0.21812105442344254 -0.002713483731960231 -0.004991354517454624
                      }
                    }
                  }
                }
                JOINT leftThumbProximal
                {
                  OFFSET 0.10793587079521427 -0.1652791240518252 -0.07775251827190094
                  CHANNELS 3 Yrotation Xrotation Zrotation
                  JOINT leftThumbIntermediate
                  {
                    OFFSET 0.40355819082296684 -0.017484006740276614 0.3177776014416309
                    CHANNELS 3 Yrotation Xrotation Zrotation
                    JOINT leftThumbDistal
                    {
                      OFFSET 0.2318764658022603 -0.018510186824293617 0.21396001800186287
                      CHANNELS 3 Yrotation Xrotation Zrotation
                      End Site
                      {
                        OFFSET 0.2318764658022603 -0.018510186824293617 0.21396001800186287
                      }
                    }
                  }
                }
              }
            }
          }
        }
        JOINT rightShoulder
        {
          OFFSET -0.4148697850920044 1.1670505408695453 0
          CHANNELS 3 Yrotation Xrotation Zrotation
          JOINT rightUpperArm
          {
            OFFSET -0.9737926108153414 0 0
            CHANNELS 3 Yrotation Xrotation Zrotation
            JOINT rightLowerArm
            {
              OFFSET -2.5269332222665293 0 0
              CHANNELS 3 Yrotation Xrotation Zrotation
              JOINT rightHand
              {
                OFFSET -2.42637827384259 0 0
                CHANNELS 3 Yrotation Xrotation Zrotation
                JOINT rightIndexProximal
                {
                  OFFSET -0.724320348022514 0.08170607082582437 0.20360061616140124
                  CHANNELS 3 Yrotation Xrotation Zrotation
                  JOINT rightIndexIntermediate
                  {
                    OFFSET -0.36548960630744587 -0.010566596513783999 -0.01414783573280308
                    CHANNELS 3 Yrotation Xrotation Zrotation
                    JOINT rightIndexDistal
                    {
                      OFFSET -0.22502819650693362 -0.007863819831430696 -0.007567681939621526
                      CHANNELS 3 Yrotation Xrotation Zrotation
                      End Site
                      {
                        OFFSET -0.22502819650693362 -0.007863819831430696 -0.007567681939621526
                      }
                    }
                  }
                }
                JOINT rightLittleProximal
                {
                  OFFSET -0.6720322998298205 0.08170601055037707 -0.3230036039466837
                  CHANNELS 3 Yrotation Xrotation Zrotation
                  JOINT rightLittleIntermediate
                  {
                    OFFSET -0.34583592281688713 5.476543019078406e-8 1.3869203337180114e-7
                    CHANNELS 3 Yrotation Xrotation Zrotation
                    JOINT rightLittleDistal
                    {
                      OFFSET -0.19925728062053938 0.003098047439490381 0.0038303983709246925
                      CHANNELS 3 Yrotation Xrotation Zrotation
                      End Site
                      {
                        OFFSET -0.19925728062053938 0.003098047439490381 0.0038303983709246925
                      }
                    }
                  }
                }
                JOINT rightMiddleProximal
                {
                  OFFSET -0.7300436596551069 0.0817073395107144 0.022661722987926763
                  CHANNELS 3 Yrotation Xrotation Zrotation
                  JOINT rightMiddleIntermediate
                  {
                    OFFSET -0.40758254347686607 -0.0000012383587111308714 2.408460318820138e-7
                    CHANNELS 3 Yrotation Xrotation Zrotation
                    JOINT rightMiddleDistal
                    {
                      OFFSET -0.2514490105498507 0.0000013869132886590307 9.738618134136345e-8
                      CHANNELS 3 Yrotation Xrotation Zrotation
                      End Site
                      {
                        OFFSET -0.2514490105498507 0.0000013869132886590307 9.738618134136345e-8
                      }
                    }
                  }
                }
                JOINT rightRingProximal
                {
                  OFFSET -0.7217261161191838 0.08170601902187746 -0.15043395722184966
                  CHANNELS 3 Yrotation Xrotation Zrotation
                  JOINT rightRingIntermediate
                  {
                    OFFSET -0.37808807487521556 0.0000013754022405443322 2.2046919317952884e-7
                    CHANNELS 3 Yrotation Xrotation Zrotation
                    JOINT rightRingDistal
                    {
                      OFFSET -0.21812105442344254 -0.002713483731960231 -0.004991354517454624
                      CHANNELS 3 Yrotation Xrotation Zrotation
                      End Site
                      {
                        OFFSET -0.21812105442344254 -0.002713483731960231 -0.004991354517454624
                      }
                    }
                  }
                }
                JOINT rightThumbProximal
                {
                  OFFSET -0.10793587079521427 -0.1652791240518252 -0.07775251827190094
                  CHANNELS 3 Yrotation Xrotation Zrotation
                  JOINT rightThumbIntermediate
                  {
                    OFFSET -0.40355819082296684 -0.017484006740276614 0.3177776014416309
                    CHANNELS 3 Yrotation Xrotation Zrotation
                    JOINT rightThumbDistal
                    {
                      OFFSET -0.2318764658022603 -0.018510186824293617 0.21396001800186287
                      CHANNELS 3 Yrotation Xrotation Zrotation
                      End Site
                      {
                        OFFSET -0.2318764658022603 -0.018510186824293617 0.21396001800186287
                      }
                    }
                  }
                }
              }
            }
          }
        }
      }
    }
  }
  JOINT leftUpperLeg
  {
    OFFSET 0.8486251390888677 -0.4421577294694363 0
    CHANNELS 3 Yrotation Xrotation Zrotation
    JOINT leftLowerLeg
    {
      OFFSET 0 -4.10147812638609 0
      CHANNELS 3 Yrotation Xrotation Zrotation
      JOINT leftFoot
      {
        OFFSET -0.0002543926476658853 -4.77292286812444 0.007402811231737388
        CHANNELS 3 Yrotation Xrotation Zrotation
        JOINT leftToes
        {
          OFFSET 0 -0.7027875951174846 1.2062924140498823
          CHANNELS 3 Yrotation Xrotation Zrotation
          End Site
          {
            OFFSET 0 -0.7027875951174846 1.2062924140498823
          }
        }
      }
    }
  }
  JOINT rightUpperLeg
  {
    OFFSET -0.8486251390888677 -0.4421577294694363 0
    CHANNELS 3 Yrotation Xrotation Zrotation
    JOINT rightLowerLeg
    {
      OFFSET 0 -4.10147812638609 0
      CHANNELS 3 Yrotation Xrotation Zrotation
      JOINT rightFoot
      {
        OFFSET 0.0002543926476658853 -4.77292286812444 0.007402811231737388
        CHANNELS 3 Yrotation Xrotation Zrotation
        JOINT rightToes
        {
          OFFSET 0 -0.7027875951174846 1.2062924140498823
          CHANNELS 3 Yrotation Xrotation Zrotation
          End Site
          {
            OFFSET 0 -0.7027875951174846 1.2062924140498823
          }
        }
      }
    }
  }
}
MOTION
Frames: 4
Frame Time: 0.03333333333333333
0.016064677387475967 -1.3553747853311613 0.005312190391123295 -8.848041080821467 11.31827107814681 19.15214909343702 7.231867470271061 3.2589390658181907 2.714033506356113 -3.7234671461833577 23.353120258125 -26.964812033709478 0 0 0 5.654098124354703 -5.702266815894742 0.20347493752227497 8.869166038190667 -22.813829082125686 -12.838253419594002 0 0 0 0 0 0 -14.99415687075578 1.314510942161273 -0.12794126117644744 -22.81341832632857 -8.797176918381417 -48.890370100966635 -43.95185455704776 -5.43308203848893 2.7891738197669156 -5.480012651698258 40.92390532873402 -14.741828982189764 -9.638604892648644 -1.4619069309053052 -0.917508117585064 1.0331425129339245 0.08716536034587317 -9.646942960095872 1.0331294949872123 0.08715335414008098 -9.646945485200323 11.451920389388718 1.955996472954009 -4.160680946149983 -3.7398892070626935 -0.005317752508685819 -3.439569365751094 0.3207059535020958 0.008338688837984186 -2.98203787394592 -0.0017169924756121225 8.877201898111656e-7 0.01599838964981215 0.6213992391456733 0.03138661178120565 -5.785115448278354 0.6196958220728136 0.031218811884141443 -5.769118748952132 -2.499399605396151e-11 -6.108701537329427e-10 -2.3935504582910804e-12 1.1982540223081917 0.11755494852849019 -11.20737059063273 1.1982734414517577 0.11756324615858062 -11.207369753138668 29.318570356428804 -18.310973909107926 -6.1603975048635 8.787143361418467 4.084831799888243 1.3359154503224644 11.451233988609664 1.6541651085858493 3.848389766110092 10.03102081984157 3.702684828924205 -9.297290014331917 45.126402852022075 -24.914335308627248 65.2624734091416 33.67597486817141 -4.386991822108709 -1.775248362905559 -0.5111060496691027 19.976178010369036 -15.186435803529845 4.632465736625677 -0.6832424168230989 0.47686489752593053 -1.0410982108804334 0.08758466374534221 9.615430667070603 -1.0411121891320827 0.08755829678311046 9.615448914890129 -6.877810393758264 0.9364899808967632 -0.8045970095513996 -0.8385401216773971 0.05668142130012747 7.7317686421247505 -0.8385121635709736 0.05666616008873489 7.731779640283085 -1.0431164802538763e-9 5.017823084871815e-8 1.0468999177720403e-11 -0.968475453492498 0.07571926572559015 8.938997184164021 -0.9684907125292542 0.07571782498130399 8.93897978542205 -6.049277345761302e-10 6.3611093629270335e-15 7.92890540015837e-12 -0.9334742079485591 0.07030517581195661 8.613458996909372 -0.9334636438940306 0.07028812033651459 8.613455620330269 -16.2100321445177 -16.13934040850361 -1.3171864523871344 -11.651545569083119 5.24443167633104 -1.390166582252438 -9.122527502558736 0.8461509627252636 -3.2709452218160853 19.494244348725644 -32.91775174665263 -25.75749322884316 14.640463398728722 49.41331151474151 9.222336780011084 2.685482556500177 -24.179578231958118 -1.9012813947358485 -0.000003764413569223859 -0.6253218887665086 -0.000002085814915624352 22.797232403174622 -45.956841547814996 -25.15240340525294 -21.09943295303229 60.2880394539749 -28.338190829633227 -1.5835946514721015 -20.71649398126618 9.570948107578026 0.000004176513852743546 -4.6348195856212095 -2.6761757742756694e-7
0.01803542859852314 -1.404735060599716 -0.021202364936470985 -7.043690079336743 12.451201556014883 19.90843290097868 7.327971006282995 3.2095626742690637 2.561300436998558 -3.9074860078996165 23.05943453563713 -28.321442390524762 0 0 0 5.177698733709273 -6.033757693614977 0.7290996826738299 6.724508988201968 -23.342067257173056 -11.563200422154981 0 0 0 0 0 0 -15.158934560102853 1.4017258037712923 0.2938323053578005 -22.796141548746157 -9.858567890138545 -48.143309034350295 -42.28553415052787 -5.276257793657284 2.6123864926643776 -6.253180944534867 42.80731477241137 -14.983904920548277 -9.638574850824378 -1.4619091727908442 -0.917494454511083 1.0331425129339245 0.08716536034587317 -9.646942960095872 1.0331294949872123 0.08715335414008098 -9.646945485200323 11.451931115007154 1.9559951915469094 -4.160671147920243 -3.739870890019164 -0.005314918130245461 -3.4395655306904795 0.32073295367090643 0.0083353346080865 -2.9820434159598883 -0.001729561457746497 -6.338959980125321e-7 0.015999336804933567 0.6213916623491382 0.03138565128570951 -5.785116722416511 0.6196923538196814 0.031220262632544776 -5.769112034795935 -2.499399605396151e-11 -6.108701537329427e-10 -2.3935504582910804e-12 1.1982958481555306 0.11753643227357063 -11.207354678244718 1.1982774959981821 0.11755061295006773 -11.20737627935833 29.318560753807528 -18.310970311868303 -6.1604015283886655 8.787143361418467 4.084831799888243 1.3359154503224644 11.451233988609664 1.6541651085858493 3.848389766110092 10.000748226794537 3.6900264880331486 -9.365639708836536 46.169856318863836 -25.537575326570632 64.98137471097748 33.03826170730736 -4.316143359289262 -1.7187164134627406 0.10584957492425251 19.836539612957953 -15.615541295162615 4.632460780042322 -0.6832304097775133 0.4768459537321705 -1.0410968237256828 0.08757195050728937 9.615451440230112 -1.0411015187109876 0.08756970934885029 9.61544161021078 -6.877806578914989 0.9364907280485038 -0.8046033063522794 -0.8385318516268746 0.05665702870831879 7.73177118016134 -0.8385443367353921 0.056684102684297376 7.731779640283085 -1.0431164802538763e-9 5.017823084871815e-8 1.0468999177720403e-11 -0.9684919930078568 0.07569321226642295 8.939002244592395 -0.9684696913387218 0.0757169311862376 8.93900730502063 -6.049277345761302e-10 6.3611093629270335e-15 7.92890540015837e-12 -0.9335042994974738 0.0703121794291716 8.61344413497771 -0.9334680189065198 0.07031068532416565 8.613439914253743 -16.2100321445177 -16.13934040850361 -1.3171864523871344 -11.651545569083119 5.24443167633104 -1.390166582252438 -9.122527502558736 0.8461509627252636 -3.2709452218160853 19.457522572434637 -35.00876064452329 -26.632193878984584 15.18326070599574 50.31752584931033 8.995552010586712 1.911231004342562 -24.275148916625195 -1.3848833103360922 -0.0000034063702708349924 -1.3350788313335553 0.0000023920056561872933 23.87538716963305 -47.14352697381708 -26.873939437243536 -21.126864646017676 61.18301640527623 -28.508449406466816 -1.1950194102532146 -22.487648405092486 8.739623524274146 1.5721355594845892e-7 -3.9766373563151545 -0.0000051271989559296436
0.004587640054523945 -1.5310396870645597 -0.06054072827100754 -2.7471851079187237 14.433576869255143 21.28055561202773 7.326675729129367 3.086754075873576 2.200132085438524 -4.250994881053485 22.44253510179606 -30.569168616391146 0 0 0 4.177739954307044 -6.631097788814992 1.8511007504149972 2.210355771534592 -24.03725923005579 -8.879359248852866 0 0 0 0 0 0 -15.600608182825614 1.5047186028212653 0.569597681791099 -22.379042330381818 -11.424008433517347 -46.96279341480375 -40.17503407359617 -5.070258035508862 2.3950355503694167 -6.868337129258591 45.80783764885162 -15.150738038990859 -9.638600682671804 -1.4619053295584932 -0.917492212912998 1.0331425129339245 0.08716536034587317 -9.646942960095872 1.0331294949872123 0.08715335414008098 -9.646945485200323 11.451902965656497 1.9559981814968097 -4.160672851960215 -3.7398645003526365 -0.005323363319015138 -3.4395619086887597 0.32072265518756266 0.008345107148138974 -2.982070451076408 -0.0017120676440882153 9.597381255744802e-7 0.01600578012780155 0.6213818445282437 0.031389323179950024 -5.785121394256368 0.6197282102210755 0.031202957038373957 -5.769120023126319 0.000007420819293915733 -0.000004745641214896091 -0.00000272503574176206 1.1982689601109595 0.11756628773359828 -11.207357190727151 1.1982809103530563 0.11753763289528693 -11.207363890680096 29.318560367395097 -18.310950527051713 -6.160391815167022 8.787143361418467 4.084831799888243 1.3359154503224644 11.451233988609664 1.6541651085858493 3.848389766110092 9.956378148392389 3.666400006297026 -9.582092547928253 48.07400308957462 -26.49413648189161 64.51029171148159 32.21278136200001 -4.223593539272487 -1.6466692668569103 1.5174555440175928 19.656065594965668 -16.413821359253603 4.632488289321075 -0.6832385745685082 0.47686249619996673 -1.0411042930204792 0.08756039786914648 9.61546154158967 -1.0411077075552317 0.08756453334007482 9.615434875970754 -6.877798949228256 0.9364933964475781 -0.8046192618052693 -0.8385420424633201 0.05667394410695778 7.731785175809065 -0.8385306244580844 0.05664016667056368 7.731778794270925 2.0892936480346584e-7 -0.000002849016714800255 -4.733295879177766e-7 -0.9684697980452734 0.07571813180647603 8.938997184164021 -0.9684715053500977 0.07570112301976802 8.939016269715845 2.074999090296476e-7 -0.00000289919497745452 -4.7331330347780754e-7 -0.933461296326349 0.07029104851552041 8.613456464475052 -0.9335017385146074 0.07029903930925481 8.613437381819317 -16.2100321445177 -16.13934040850361 -1.3171864523871344 -11.651545569083119 5.24443167633104 -1.390166582252438 -9.122527502558736 0.8461509627252636 -3.2709452218160853 19.915697534470354 -39.239910746850896 -28.69204606212329 15.508874730413549 52.87406169813924 8.701614492007153 0.2568917324928041 -24.772133232313408 -0.3708495426123237 0.000004648251513775014 -2.741575148625469 -0.0000021958144476372447 25.593469501106302 -49.954207820385484 -30.947391692898712 -21.960166724648026 63.459745884829935 -29.638807638869856 -0.24714306674117972 -25.46587354192088 8.10637636614733 -0.000004416563887745199 -3.6382130508080617 -0.0000048224312425588175
-0.023555811494588852 -1.6863007267984464 -0.08004052937030792 1.5206237772689253 15.54241717783352 22.589363479737365 7.182022706889202 2.9879873832755006 1.6562926924878256 -4.602220019363344 22.100257176259657 -32.30428062978695 0 0 0 3.1974272743541263 -7.091141539331016 2.9654089748016044 -2.2299189741591943 -24.402089724706958 -6.126755882898497 0 0 0 0 0 0 -16.246382741020703 1.5263370972059571 0.22978669636408028 -21.645848505525606 -12.617388858956865 -46.02588409277645 -39.308961665323224 -4.983396541117182 2.3080261961479387 -6.48666285466258 47.419237360260176 -14.591722345203829 -9.638565858885976 -1.4618863269097435 -0.917499364678307 1.0331425129339245 0.08716536034587317 -9.646942960095872 1.0331294949872123 0.08715335414008098 -9.646945485200323 11.451901291127879 1.9560039478287756 -4.1606651837802815 -3.739861721731117 -0.005321149677373949 -3.439558712804866 0.32069885661975633 0.008340737394498894 -2.98206192490096 -0.0017259108250250973 0.0000020904317268329985 0.016002053205801097 0.6214252243561597 0.03140673216081961 -5.785107378736564 0.6196947015602636 0.031218635126290004 -5.769093771632642 -2.499399605396151e-11 -6.108701537329427e-10 -2.3935504582910804e-12 1.1982783495869014 0.11758488402998554 -11.207358865715419 1.1982804835586975 0.11755200033516285 -11.207383816804834 29.318568208572795 -18.310945131193037 -6.160399415158154 8.787143361418467 4.084831799888243 1.3359154503224644 11.451233988609664 1.6541651085858493 3.848389766110092 9.934693901261019 3.6463193566246814 -9.909311555182008 49.758694612723275 -26.968827240387622 63.996388597916244 32.34406798629452 -4.238399050057234 -1.65801170991649 1.8140376363152777 19.0518538381938 -17.08895309852363 4.632483608573092 -0.6832460989837512 0.4768749830949603 -1.0411092014141836 0.08756375293668991 9.615434034190734 -1.0411190182015457 0.08758158215248746 9.615444705990074 -6.877789215036241 0.936492649295837 -0.8045959956597306 -0.8385495121863354 0.05666161774391121 7.731785175809065 -0.8385314781407212 0.056687297666927865 7.731782178319541 -1.0431164802538763e-9 5.017823084871815e-8 1.0468999177720403e-11 -0.9684782278628274 0.07569772793253965 8.93900730502063 -0.9684719321763039 0.07570605890296887 8.939008148425321 -6.049277345761302e-10 6.3611093629270335e-15 7.92890540015837e-12 -0.9334889336002199 0.07028291097933155 8.6134657500674 -0.9334754884400127 0.07029304287889807 8.613456464475052 -16.2100321445177 -16.13934040850361 -1.3171864523871344 -11.651545569083119 5.24443167633104 -1.390166582252438 -9.122527502558736 0.8461509627252636 -3.2709452218160853 21.368017285713556 -42.411545076840554 -31.47308492880558 12.393399839048136 56.31282921982962 6.572641523698146 0.14613576639720238 -25.761813631523438 0.6020789382745144 -0.00000712326519385985 -3.9501197610273255 -0.000002473192499868827 27.842450267267985 -52.157326351996424 -35.65079719134239 -23.466775768540032 66.59197331124808 -31.53201255177133 0.5559349475585789 -27.337620713179493 9.264253943219156 -0.000008345341803862978 -2.483148049693632 0.0000011948168912781673
